<svg width="383" height="129" viewBox="0 0 383 129" fill="none" xmlns="http://www.w3.org/2000/svg">
<path d="M16.8125 61.0946H56.1132V69.6615H16.8125V96.4331H62.5384V105H7.17478V28.4333H61.2533V37.0002H16.8125V61.0946ZM108.108 70.0899C107.679 64.0931 103.61 56.3828 92.6873 56.3828C79.7299 56.3828 74.8039 67.4127 74.8039 77.693C74.8039 87.9733 79.7299 99.0032 92.6873 99.0032C103.717 99.0032 107.679 91.4 108.108 84.8678H116.675C115.925 97.2898 106.18 106.499 92.6873 106.499C76.7315 106.499 66.237 94.8268 66.237 77.693C66.237 60.5592 76.7315 48.8868 92.6873 48.8868C106.18 48.8868 115.39 57.8821 116.675 70.0899H108.108ZM124.123 28.4333H132.69V105H124.123V28.4333ZM190.012 50.386L166.667 109.498C164.311 115.387 161.527 123.419 151.461 123.419C148.034 123.419 145.571 122.776 144.179 122.348V115.923H145.464C150.176 116.351 153.496 116.03 156.387 112.924C158.636 110.461 160.885 105.857 158.743 100.502L138.075 50.386H147.713L164.418 94.9339H164.633L180.374 50.386H190.012ZM221.202 48.8868C234.695 48.8868 245.617 59.7025 245.617 77.693C245.617 95.6835 234.695 106.499 221.202 106.499C212.206 106.499 207.066 102.644 203.854 97.9323H203.64V123.419H195.073V50.386H203.64V57.1325H203.854C207.066 52.9561 212.206 48.8868 221.202 48.8868ZM220.131 99.0032C231.375 99.0032 237.05 88.4016 237.05 77.693C237.05 66.9844 231.375 56.3828 220.131 56.3828C209.958 56.3828 203.64 64.8427 203.64 77.693C203.64 90.5434 209.958 99.0032 220.131 99.0032ZM275.673 72.5529C285.417 74.9088 296.447 76.5151 296.447 90.0079C296.447 99.9669 287.345 106.499 274.923 106.499C258.218 106.499 250.507 98.5748 249.972 86.7953H258.539C259.074 92.8993 261.216 99.0032 274.923 99.0032C284.239 99.0032 287.88 94.1843 287.88 90.5434C287.88 82.619 280.706 82.1906 272.888 80.2631C264.536 78.2284 252.114 77.2647 252.114 64.4143C252.114 55.8474 259.717 48.8868 272.567 48.8868C286.167 48.8868 293.449 56.597 294.306 66.0206H285.739C284.882 61.8442 282.847 56.3828 272.567 56.3828C264.857 56.3828 260.681 59.4884 260.681 63.7718C260.681 70.197 268.069 70.7324 275.673 72.5529ZM327.961 99.0032C338.884 99.0032 342.953 91.9355 343.917 88.1875H352.484C349.699 98.3607 341.882 106.499 328.282 106.499C311.684 106.499 301.618 94.8268 301.618 77.693C301.618 59.4884 311.898 48.8868 327.854 48.8868C344.987 48.8868 353.34 60.5592 353.34 79.9418H310.184C310.184 89.7938 316.074 99.0032 327.961 99.0032ZM327.854 56.3828C317.573 56.3828 310.184 63.6647 310.184 72.4458H344.773C344.773 63.6647 338.134 56.3828 327.854 56.3828Z" fill="white"/>
<g clip-path="url(#clip0_8_28)">
<path d="M369.381 54.4307C376.635 54.4307 382.523 48.5424 382.523 41.2884C382.523 34.0344 376.635 28.1461 369.381 28.1461C362.127 28.1461 356.239 34.0344 356.239 41.2884C356.239 48.5424 362.127 54.4307 369.381 54.4307ZM369.381 52.2402C363.325 52.2402 358.429 47.3442 358.429 41.2884C358.429 35.2326 363.325 30.3365 369.381 30.3365C375.437 30.3365 380.333 35.2326 380.333 41.2884C380.333 47.3442 375.437 52.2402 369.381 52.2402Z" fill="white" fill-opacity="0.85"/>
<path d="M366.07 47.1895C366.74 47.1895 367.113 46.7515 367.113 46.0429V42.8345H369.51L371.739 46.5066C372.048 47.0092 372.319 47.1895 372.77 47.1895C373.324 47.1895 373.71 46.8288 373.71 46.3133C373.71 46.0299 373.633 45.8237 373.465 45.566L371.533 42.5382C373.053 42.0356 374.032 40.6828 374.032 39.0851C374.032 36.7659 372.37 35.2971 369.755 35.2971H366.057C365.4 35.2971 365.052 35.7609 365.052 36.4567V46.0429C365.052 46.7256 365.413 47.1895 366.07 47.1895ZM367.113 41.327V36.869H369.51C370.991 36.869 371.997 37.6936 371.997 39.1367C371.997 40.5411 371.017 41.327 369.458 41.327H367.113Z" fill="white" fill-opacity="0.85"/>
</g>
<defs>
<clipPath id="clip0_8_28">
<rect width="26.7612" height="26.2973" fill="white" transform="translate(356.239 28.1461)"/>
</clipPath>
</defs>
</svg>
